HIERARCHY
ROOT Root
{
  OFFSET 2.04889 11.7575 19.7971
  CHANNELS 6 Xposition Yposition Zposition Zrotation Xrotation Yrotation
  JOINT Spine
  {
    OFFSET 5.3114 0 0
    CHANNELS 3 Zrotation Xrotation Yrotation
    JOINT Spine1
    {
      OFFSET 2.79004 0 0
      CHANNELS 3 Zrotation Xrotation Yrotation
      JOINT Neck
      {
        OFFSET 1.43377 0 0
        CHANNELS 3 Zrotation Xrotation Yrotation
        JOINT Head
        {
          OFFSET 1.86043 0 0
          CHANNELS 3 Zrotation Xrotation Yrotation
          End Site
          {
            OFFSET 0 0 0
          }
        }
      }
      JOINT LeftArm
      {
        OFFSET 0.0387506 0 2.55754
        CHANNELS 3 Zrotation Xrotation Yrotation
        JOINT LeftForeArm
        {
          OFFSET 4.24845 0 0
          CHANNELS 3 Zrotation Xrotation Yrotation
          JOINT LeftHand
          {
            OFFSET 4.01008 0 0
            CHANNELS 3 Zrotation Xrotation Yrotation
            End Site
            {
              OFFSET 0 0 0
            }
          }
        }
      }
      JOINT RightArm
      {
        OFFSET 0.0387506 0 -2.55754
        CHANNELS 3 Zrotation Xrotation Yrotation
        JOINT RightForeArm
        {
          OFFSET -4.24845 0 0
          CHANNELS 3 Zrotation Xrotation Yrotation
          JOINT RightHand
          {
            OFFSET -4.01009 0 0
            CHANNELS 3 Zrotation Xrotation Yrotation
            End Site
            {
              OFFSET 0 0 0
            }
          }
        }
      }
    }
  }
  JOINT LeftUpLeg
  {
    OFFSET -1.23318 0 2.05692
    CHANNELS 3 Zrotation Xrotation Yrotation
    JOINT LeftLeg
    {
      OFFSET 5.46397 0 0
      CHANNELS 3 Zrotation Xrotation Yrotation
      JOINT LeftFoot
      {
        OFFSET 4.68898 0 0
        CHANNELS 3 Zrotation Xrotation Yrotation
        End Site
        {
          OFFSET 0 0 0
        }
      }
    }
  }
  JOINT RightUpLeg
  {
    OFFSET -1.24454 0 -2.05007
    CHANNELS 3 Zrotation Xrotation Yrotation
    JOINT RightLeg
    {
      OFFSET -5.46397 0 0
      CHANNELS 3 Zrotation Xrotation Yrotation
      JOINT RightFoot
      {
        OFFSET -4.68901 0 0
        CHANNELS 3 Zrotation Xrotation Yrotation
        End Site
        {
          OFFSET 0 0 0
        }
      }
    }
  }
}
MOTION
Frames:	8
Frame Time:	0.0416667
3.77286 11.745 -19.6655 111.301 9.68481 -8.73787 -19.5226 -1.40643 -7.37083 -1.23938 -1.02301 4.83966 0.0403526 10.5198 8.75244 -3.62741 18.0645 -8.60238 6.48149 -28.6643 -160.149 27.8914 0.113602 16.4575 -6.3213 -38.0762 172.271 -160.283 -0.632787 -165.379 23.4803 -0.441296 13.8766 -1.50291 -10.5709 174.316 -36.8849 -15.7949 -174.16 -37.2969 0.785803 -0.832692 19.1562 -1.06133 -179.042 156.14 -15.8104 -177.84 -28.8614 0.601299 -0.639264 13.9106 -16.2764 -175.729 
3.80547 11.7739 -19.4768 111.707 8.68113 -8.4454 -19.2447 -0.0945124 -9.72754 -1.55923 -0.785636 5.27529 -0.34808 9.91617 7.42441 -5.07481 17.3375 -6.22969 4.64685 -28.1952 -160.602 28.081 0.141928 16.5677 -6.18644 -37.4803 172.354 -158.871 -4.8165 -164.298 22.9569 -0.493964 13.5687 -1.10242 -7.79516 174.379 -37.0973 -14.6916 -175.007 -36.6894 0.763073 -0.833945 18.7795 -1.26086 -178.976 152.875 -16.7391 -177.787 -34.0705 0.665217 -0.608132 12.621 -16.9448 -176.197 
3.8334 11.8067 -19.3049 111.649 7.64562 -7.92454 -18.6209 1.0096 -11.7982 -1.90058 -0.574551 5.12758 -0.591346 9.54685 6.72906 -6.11286 16.8149 -4.51624 4.6006 -28.6669 -159.642 28.4669 0.201107 16.792 -6.5068 -38.8799 172.156 -157.964 -7.90153 -163.945 24.134 -0.371796 14.2608 -0.713033 -5.06013 174.423 -36.6669 -13.8303 -175.923 -35.8665 0.730576 -0.83167 18.3388 -1.70868 -178.853 150.006 -17.4676 -178.255 -39.1846 0.718649 -0.559949 11.4217 -19.2482 -176.427 
3.86257 11.826 -19.1385 111.56 7.02521 -7.23235 -18.0784 1.49649 -13.4658 -1.98162 -0.491605 3.56653 -0.98303 9.50442 7.15794 -6.85784 16.6379 -3.28264 6.27396 -29.4969 -156.622 28.7647 0.247199 16.9649 -7.04665 -41.1175 171.809 -158.155 -10.5065 -164.954 26.2634 -0.115222 15.5085 -0.65209 -4.62966 174.428 -36.2418 -13.1827 -177.195 -34.8173 0.689199 -0.823599 17.7391 -2.05919 -178.731 147.283 -17.3606 -179.001 -43.8341 0.754331 -0.506424 12.6226 -21.3564 -175.865 
3.89211 11.8285 -18.9788 111.728 6.7025 -6.66651 -17.947 0.699738 -14.8356 -1.86638 -0.778419 3.06679 -2.14348 9.82829 7.83989 -6.29936 17.28 -3.12894 7.13881 -28.932 -154.909 28.0632 0.13937 16.5575 -7.27806 -42.0318 171.655 -158.503 -14.382 -164.42 29.05 0.292907 17.1304 -0.977216 -6.91906 174.396 -36.3177 -12.4855 -178.481 -34.106 0.656234 -0.817709 17.3356 -2.18282 -178.601 144.549 -16.4209 179.745 -47.0929 0.769073 -0.46 14.8806 -20.5087 -175.262 
3.90104 11.8266 -18.8354 111.841 6.04531 -6.19917 -18.0987 0.81552 -15.3501 -1.8828 -0.785703 2.75279 -2.52425 10.0207 7.91806 -5.97397 17.6861 -2.90147 7.99759 -28.8355 -153.876 26.3828 -0.0985078 15.5781 -6.9137 -40.5802 171.896 -158.604 -16.7387 -164.084 32.1495 0.840922 18.9172 -1.29474 -9.13371 174.351 -36.2928 -11.7317 -179.454 -34.0061 0.631609 -0.808443 17.4845 -2.6045 -178.375 142.273 -15.566 177.726 -48.3385 0.770712 -0.440055 16.8639 -17.7492 -175.067 
3.90056 11.7999 -18.6911 112.217 5.35935 -5.56256 -18.6438 1.8255 -15.2146 -2.07905 -0.532823 2.07473 -2.18171 9.88613 7.51312 -6.13557 17.4396 -2.52304 9.31348 -29.2175 -153.047 24.6149 -0.317779 14.5431 -6.28438 -37.914 172.294 -158.765 -17.2155 -164.563 35.3756 1.51775 20.7539 -1.46212 -10.2902 174.323 -36.9717 -10.8326 179.425 -34.5745 0.634383 -0.823037 17.8343 -2.75135 -178.149 140.044 -14.545 175.539 -48.0564 0.764216 -0.444205 18.5637 -14.3178 -175.222 
3.88393 11.7625 -18.5576 112.464 4.45448 -4.88919 -19.2894 2.68634 -14.6151 -2.20003 -0.298949 1.63317 -2.11325 9.92503 7.58241 -5.78396 17.4871 -2.76607 10.5724 -28.4604 -153.002 23.3536 -0.454123 13.802 -5.73643 -35.4203 172.621 -158.957 -18.0764 -164.473 38.5143 2.27868 22.5142 -1.64845 -11.5678 174.288 -37.4345 -9.76029 178.469 -35.4052 0.634175 -0.822284 18.557 -2.99663 -177.868 138.511 -13.4025 173.098 -46.2606 0.749363 -0.467805 20.0491 -10.7996 -175.616 
